<svg width="1012" height="3271" viewBox="0 0 1012 3271" fill="none" xmlns="http://www.w3.org/2000/svg">
<g clip-path="url(#clip0_38_6)">
<rect width="1012" height="3271" fill="white" fill-opacity="0.23"/>
<path d="M262.654 441.368C204.313 480.845 147.915 531.719 117.704 516.218C73.4839 493.528 73.4465 471.303 93.5857 329.647C96.477 181.685 211.514 105.925 313.104 179.127C414.694 252.328 359.885 375.577 262.654 441.368Z" fill="#829A7A"/>
<path d="M379.195 2400.01C469.8 2443.89 573.109 2477.2 575.574 2525.67C579.181 2596.61 551.722 2612.57 362.105 2689.11C177.043 2791.5 0.961771 2703.49 18.738 2525.42C36.5143 2347.36 228.195 2326.88 379.195 2400.01Z" fill="#829A7A"/>
<path d="M168.145 1666.33C227.009 1627.64 284.081 1577.52 314.082 1593.43C357.995 1616.71 357.735 1638.93 335.705 1780.3C330.836 1928.21 214.797 2002.43 114.194 1927.88C13.5921 1853.32 70.0432 1730.82 168.145 1666.33Z" fill="#4A6D3E"/>
<path d="M1110.21 68.8321C1312.47 232.523 1307.26 256.035 1287.8 320.258C1213.53 429.507 1179.99 367.978 797.302 379.587C495.649 375.75 396.162 151.833 535.372 -52.9469C674.581 -257.726 923.296 -82.4323 1110.21 68.8321Z" fill="#4A6D3E"/>
<path d="M127.781 707.375C381.046 647.69 396.445 666.207 435.307 720.913C476.207 846.525 407.02 835.372 181.876 1145.04C-5.86222 1381.18 -243.812 1322.73 -320.476 1087.28C-397.139 851.832 -106.258 762.528 127.781 707.375Z" fill="#4A6D3E"/>
<path d="M427.993 3158.9C209.656 3017.36 212.369 2993.43 224.973 2927.52C287.357 2811.07 327.179 2868.74 706.53 2817C1006.92 2789.14 1129.37 3001.37 1012.44 3219.64C895.503 3437.9 629.755 3289.7 427.993 3158.9Z" fill="#4A6D3E"/>
<path d="M537.777 2026.86C441.927 1784.95 458.01 1767.03 506.488 1720.63C624.825 1661.91 623.844 1731.98 962.938 1909.74C1223.85 2061.18 1200.6 2305.1 978.785 2415.16C756.972 2525.22 626.351 2250.4 537.777 2026.86Z" fill="#829A7A"/>
<path d="M718.959 1270.62C870.842 1368.46 869.007 1385.08 860.387 1430.87C817.303 1511.85 789.538 1471.89 526.241 1508.57C317.724 1528.51 232.276 1381.4 313.033 1229.61C393.79 1077.83 578.606 1180.2 718.959 1270.62Z" fill="#4A6D3E"/>
<path d="M690.655 987.666C517.413 993.218 509.801 979.095 491.645 938.248C481.515 850.834 525.218 867.245 713.085 694.76C866.826 565.345 1014.48 634.908 1033.47 798.758C1052.46 962.609 850.746 982.536 690.655 987.666Z" fill="#829A7A"/>
</g>
<defs>
<clipPath id="clip0_38_6">
<rect width="1012" height="3271" fill="white"/>
</clipPath>
</defs>
</svg>
