<svg width="412" height="422" viewBox="0 0 412 422" fill="none" xmlns="http://www.w3.org/2000/svg">
<g clip-path="url(#clip0_42_20)">
<path d="M48.6269 520.779C-158.215 503.504 -165.756 481.481 -182.975 418.348C-185.628 287.472 -135.366 318.194 106.851 90.5322C303.807 -78.3982 472.103 46.292 477.076 291.61C482.048 536.928 239.767 536.743 48.6269 520.779Z" fill="#607E55" fill-opacity="0.88"/>
<path d="M5.67913 189.057C19.7023 111.659 21.9236 27.6619 61.2305 13.5322C118.766 -7.15 138.612 8.86349 247.917 128.01C377.394 237.253 347.889 388.363 196.921 420.663C45.9538 452.963 -17.6916 318.047 5.67913 189.057Z" fill="#4A6D3E"/>
<path d="M268.207 46.6758C481.676 -3.81538 497.529 18.0131 538.572 82.0684C590.596 225.977 528.718 208.9 372.252 542.293C238.916 795.475 23.4938 714.151 -74.0214 444.405C-171.537 174.659 70.9436 93.334 268.207 46.6758Z" fill="#829A7A"/>
<path d="M348.023 43.0901C718.781 -45.9999 653.689 286.106 642.782 344.5C587.813 447.632 555.837 444.981 218.523 490.5C-48.6378 514.933 -230.477 218.226 -53.9767 43.09C184.023 -61.7744 163.254 87.4886 348.023 43.0901Z" fill="#4B6E40"/>
</g>
<defs>
<clipPath id="clip0_42_20">
<rect width="412" height="422" fill="white"/>
</clipPath>
</defs>
</svg>
