<svg width="128" height="23" viewBox="0 0 128 23" fill="none" xmlns="http://www.w3.org/2000/svg">
<rect y="7" width="3" height="8" fill="#6EBA3D"/>
<rect x="4" y="4" width="3" height="16" fill="#B2FF59"/>
<rect x="8" width="3" height="18" fill="#64DD17"/>
<rect x="12" y="7" width="3" height="16" fill="#33691E"/>
<rect x="16" y="3" width="3" height="11" fill="#16360B" fill-opacity="0.73"/>
<path d="M25.017 18H22.3807L26.3977 6.36364H29.5682L33.5795 18H30.9432L28.0284 9.02273H27.9375L25.017 18ZM24.8523 13.4261H31.0795V15.3466H24.8523V13.4261ZM42.1491 10.125C42.0696 9.84848 41.9579 9.60417 41.8139 9.39205C41.67 9.17614 41.4938 8.99432 41.2855 8.84659C41.081 8.69508 40.8461 8.57955 40.581 8.5C40.3196 8.42045 40.0298 8.38068 39.7116 8.38068C39.117 8.38068 38.5942 8.52841 38.1435 8.82386C37.6965 9.11932 37.348 9.54924 37.098 10.1136C36.848 10.6742 36.723 11.3598 36.723 12.1705C36.723 12.9811 36.8461 13.6705 37.0923 14.2386C37.3385 14.8068 37.687 15.2405 38.1378 15.5398C38.5885 15.8352 39.1207 15.983 39.7344 15.983C40.2912 15.983 40.7666 15.8845 41.1605 15.6875C41.5582 15.4867 41.8613 15.2045 42.0696 14.8409C42.2817 14.4773 42.3878 14.0473 42.3878 13.5511L42.8878 13.625H39.8878V11.7727H44.7571V13.2386C44.7571 14.2614 44.5412 15.1402 44.1094 15.875C43.6776 16.6061 43.0829 17.1705 42.3253 17.5682C41.5677 17.9621 40.7003 18.1591 39.723 18.1591C38.6321 18.1591 37.6738 17.9186 36.848 17.4375C36.0223 16.9527 35.3783 16.2652 34.9162 15.375C34.4579 14.4811 34.2287 13.4205 34.2287 12.1932C34.2287 11.25 34.3651 10.4091 34.6378 9.67045C34.9143 8.92803 35.3007 8.29924 35.7969 7.78409C36.2931 7.26894 36.8707 6.87689 37.5298 6.60795C38.1889 6.33901 38.9029 6.20455 39.6719 6.20455C40.331 6.20455 40.9446 6.30114 41.5128 6.49432C42.081 6.68371 42.5848 6.95265 43.0241 7.30114C43.4673 7.64962 43.8291 8.06439 44.1094 8.54545C44.3897 9.02273 44.5696 9.54924 44.6491 10.125H42.1491ZM46.6051 18V6.36364H51.196C52.0748 6.36364 52.8248 6.52083 53.446 6.83523C54.071 7.14583 54.5464 7.58712 54.8722 8.15909C55.2017 8.72727 55.3665 9.39583 55.3665 10.1648C55.3665 10.9375 55.1998 11.6023 54.8665 12.1591C54.5331 12.7121 54.0502 13.1364 53.4176 13.4318C52.7888 13.7273 52.0275 13.875 51.1335 13.875H48.0597V11.8977H50.7358C51.2055 11.8977 51.5956 11.8333 51.9062 11.7045C52.2169 11.5758 52.4479 11.3826 52.5994 11.125C52.7547 10.8674 52.8324 10.5473 52.8324 10.1648C52.8324 9.77841 52.7547 9.45265 52.5994 9.1875C52.4479 8.92235 52.215 8.72159 51.9006 8.58523C51.59 8.44508 51.1979 8.375 50.7244 8.375H49.0653V18H46.6051ZM52.8892 12.7045L55.7812 18H53.0653L50.2358 12.7045H52.8892ZM59.5653 6.36364V18H57.1051V6.36364H59.5653Z" fill="#6EBA3D"/>
<path d="M68.7727 9.27273C68.7045 8.69697 68.428 8.25 67.9432 7.93182C67.4583 7.61364 66.8636 7.45455 66.1591 7.45455C65.6439 7.45455 65.1932 7.53788 64.8068 7.70455C64.4242 7.87121 64.125 8.10038 63.9091 8.39205C63.697 8.68371 63.5909 9.01515 63.5909 9.38636C63.5909 9.69697 63.6648 9.96401 63.8125 10.1875C63.964 10.4072 64.1572 10.5909 64.392 10.7386C64.6269 10.8826 64.8731 11.0019 65.1307 11.0966C65.3883 11.1875 65.625 11.2614 65.8409 11.3182L67.0227 11.6364C67.3258 11.7159 67.6629 11.8258 68.0341 11.9659C68.4091 12.1061 68.767 12.2973 69.108 12.5398C69.4527 12.7784 69.7367 13.0852 69.9602 13.4602C70.1837 13.8352 70.2955 14.2955 70.2955 14.8409C70.2955 15.4697 70.1307 16.0379 69.8011 16.5455C69.4754 17.053 68.9981 17.4564 68.3693 17.7557C67.7443 18.0549 66.9848 18.2045 66.0909 18.2045C65.2576 18.2045 64.536 18.0701 63.9261 17.8011C63.3201 17.5322 62.8428 17.1572 62.4943 16.6761C62.1496 16.1951 61.9545 15.6364 61.9091 15H63.3636C63.4015 15.4394 63.5492 15.803 63.8068 16.0909C64.0682 16.375 64.3977 16.5871 64.7955 16.7273C65.197 16.8636 65.6288 16.9318 66.0909 16.9318C66.6288 16.9318 67.1117 16.8447 67.5398 16.6705C67.9678 16.4924 68.3068 16.2462 68.5568 15.9318C68.8068 15.6136 68.9318 15.2424 68.9318 14.8182C68.9318 14.4318 68.8239 14.1174 68.608 13.875C68.392 13.6326 68.108 13.4356 67.7557 13.2841C67.4034 13.1326 67.0227 13 66.6136 12.8864L65.1818 12.4773C64.2727 12.2159 63.553 11.8428 63.0227 11.358C62.4924 10.8731 62.2273 10.2386 62.2273 9.45455C62.2273 8.80303 62.4034 8.23485 62.7557 7.75C63.1117 7.26136 63.589 6.88258 64.1875 6.61364C64.7898 6.34091 65.4621 6.20455 66.2045 6.20455C66.9545 6.20455 67.6212 6.33901 68.2045 6.60795C68.7879 6.87311 69.25 7.23674 69.5909 7.69886C69.9356 8.16098 70.1174 8.68561 70.1364 9.27273H68.7727ZM71.9759 7.61364V6.36364H80.7031V7.61364H77.044V18H75.6349V7.61364H71.9759ZM81.9957 18H80.5185L84.7912 6.36364H86.2457L90.5185 18H89.0412L85.5639 8.20455H85.473L81.9957 18ZM82.5412 13.4545H88.4957V14.7045H82.5412V13.4545ZM90.3352 7.61364V6.36364H99.0625V7.61364H95.4034V18H93.9943V7.61364H90.3352ZM107.601 9.27273C107.533 8.69697 107.256 8.25 106.771 7.93182C106.286 7.61364 105.692 7.45455 104.987 7.45455C104.472 7.45455 104.021 7.53788 103.635 7.70455C103.252 7.87121 102.953 8.10038 102.737 8.39205C102.525 8.68371 102.419 9.01515 102.419 9.38636C102.419 9.69697 102.493 9.96401 102.641 10.1875C102.792 10.4072 102.985 10.5909 103.22 10.7386C103.455 10.8826 103.701 11.0019 103.959 11.0966C104.216 11.1875 104.453 11.2614 104.669 11.3182L105.851 11.6364C106.154 11.7159 106.491 11.8258 106.862 11.9659C107.237 12.1061 107.595 12.2973 107.936 12.5398C108.281 12.7784 108.565 13.0852 108.788 13.4602C109.012 13.8352 109.124 14.2955 109.124 14.8409C109.124 15.4697 108.959 16.0379 108.629 16.5455C108.304 17.053 107.826 17.4564 107.197 17.7557C106.572 18.0549 105.813 18.2045 104.919 18.2045C104.086 18.2045 103.364 18.0701 102.754 17.8011C102.148 17.5322 101.671 17.1572 101.322 16.6761C100.978 16.1951 100.783 15.6364 100.737 15H102.192C102.23 15.4394 102.377 15.803 102.635 16.0909C102.896 16.375 103.226 16.5871 103.624 16.7273C104.025 16.8636 104.457 16.9318 104.919 16.9318C105.457 16.9318 105.94 16.8447 106.368 16.6705C106.796 16.4924 107.135 16.2462 107.385 15.9318C107.635 15.6136 107.76 15.2424 107.76 14.8182C107.76 14.4318 107.652 14.1174 107.436 13.875C107.22 13.6326 106.936 13.4356 106.584 13.2841C106.232 13.1326 105.851 13 105.442 12.8864L104.01 12.4773C103.101 12.2159 102.381 11.8428 101.851 11.358C101.321 10.8731 101.055 10.2386 101.055 9.45455C101.055 8.80303 101.232 8.23485 101.584 7.75C101.94 7.26136 102.417 6.88258 103.016 6.61364C103.618 6.34091 104.29 6.20455 105.033 6.20455C105.783 6.20455 106.449 6.33901 107.033 6.60795C107.616 6.87311 108.078 7.23674 108.419 7.69886C108.764 8.16098 108.946 8.68561 108.964 9.27273H107.601Z" fill="#F5F5F5"/>
<path d="M110.881 18V10.7273H111.761V14.3352H111.847L115.114 10.7273H116.264L113.21 14.0085L116.264 18H115.199L112.67 14.6193L111.761 15.642V18H110.881ZM117.404 18V10.7273H121.793V11.5085H118.285V13.9659H121.566V14.7472H118.285V17.2188H121.85V18H117.404Z" fill="#F5F5F5"/>
</svg>
